<svg xmlns="http://www.w3.org/2000/svg" width="48" height="11" fill="none" viewBox="0 0 48 11"><path fill="#fff" d="M.58 5.45h8.17v1.04H.58V5.45Zm21.8.17h3.9v1.03h-3.9V5.62Zm-6.4-1.98-.76-1.47h-.06l.17 1.42V10h-1.12V.05h.62l4.42 6.48.72 1.4h.07l-.16-1.35V.2H21v9.95h-.64l-4.38-6.5Zm6.14-1.23c0-.42.06-.78.17-1.08.11-.3.26-.54.45-.74.2-.2.42-.33.68-.42a2.78 2.78 0 0 1 1.72-.01c.28.08.5.22.7.4.19.2.34.44.45.75.12.3.17.66.17 1.1 0 .44-.05.81-.17 1.12-.1.3-.26.54-.46.73-.19.19-.41.32-.68.4a2.91 2.91 0 0 1-1.72 0 1.76 1.76 0 0 1-.7-.4 2 2 0 0 1-.44-.73 3.3 3.3 0 0 1-.17-1.12Zm1.04 0c0 .56.1.96.3 1.2.2.25.48.37.83.37.18 0 .34-.02.48-.07a.87.87 0 0 0 .35-.25c.1-.12.17-.28.22-.48.06-.2.09-.46.09-.77 0-.3-.03-.56-.09-.75-.05-.2-.12-.37-.22-.48a.72.72 0 0 0-.35-.25c-.14-.06-.3-.09-.48-.09-.35 0-.63.12-.84.34-.2.21-.3.63-.3 1.23Zm5.7 6.55h1.96V2.2l.14-.83-.56.66-1.54 1.1-.53-.7L31.41.02h.5v8.93h1.92V10h-4.97V8.96Zm10.38-3.51h8.18v1.04h-8.18V5.45Z"/></svg>