<svg xmlns="http://www.w3.org/2000/svg" width="40" height="38" fill="none" viewBox="0 0 40 38"><path fill="#81B3D2" d="M15.9 33.8h8.35V21.65H15.9V33.8Zm6.84-1.47h-5.32v-9.2h5.27v9.2h.05Z"/><path fill="#81B3D2" d="m38.4 20.63 1.1-1.07-5.17-5.04V.8h-7.2V7.5L19.97.58.5 19.61l1.1 1.07 4.07-3.97v19.23H3.63v1.48H37v-1.48h-2.66V16.66l4.07 3.97ZM28.64 2.3h4.13v10.74l-4.13-4.02V2.3Zm4.18 33.58H7.23v-20.7L19.97 2.71l12.8 12.46v20.7h.05Z"/><path fill="#81B3D2" d="M16.06 14.42a4.01 4.01 0 0 0 4.02 3.97 4.03 4.03 0 0 0 4.07-3.97 3.98 3.98 0 0 0-4.07-3.92 3.94 3.94 0 0 0-4.02 3.92Zm4.02-2.54a2.59 2.59 0 0 1 2.6 2.54 2.58 2.58 0 0 1-2.6 2.55 2.59 2.59 0 0 1-2.61-2.55c0-1.37 1.2-2.54 2.6-2.54ZM10.89 21.65H9.32v1.98h1.57v-1.98ZM13.97 21.65H12.4v1.98h1.57v-1.98ZM10.89 24.7H9.32v1.98h1.57V24.7ZM13.97 24.7H12.4v1.98h1.57V24.7ZM27.54 21.65h-1.56v1.98h1.56v-1.98ZM30.68 21.65H29.1v1.98h1.57v-1.98ZM27.54 24.7h-1.56v1.98h1.56V24.7ZM30.68 24.7H29.1v1.98h1.57V24.7Z"/></svg>