<svg width="461" height="350" fill="none" xmlns="http://www.w3.org/2000/svg"><path fill-rule="evenodd" clip-rule="evenodd" d="m165.739 70-.2.2c-1.405 1.5-3.01 2.2-4.515 2.2l2.809-4.9c1.806-3.1.1-6.1-2.709-6.1-2.307 0-4.113.9-5.819 3.9l-1.505 2.6-1.204 2.1-.2.2c-2.207 2.5-4.314 4.5-5.619 4.5-.702 0-1.003-.5-.3-1.6l6.42-11.2h2.408l.903-1.4H153.7l2.809-4.9h-3.01l-2.809 4.9h-2.709l-.903 1.4h2.709l-6.019 10.4c-1.305 2.2-.402 4.3 2.006 4.3 1.706 0 3.712-1.3 5.518-3.1 0 3.8 5.317 4.6 8.528.5h.702c1.806 0 4.615-1.1 6.12-2.9 0-.5-.501-.9-.903-1.1Zm-6.421.2h-.1c-1.003 0-1.806.8-1.806 1.8 0 .4.1.7.301 1v.1c-1.404 2.4-4.816 2-3.11-1.2l2.307-3.9 1.405-2.4c2.107-3.6 5.016-2.2 3.21.9l-2.207 3.7Zm48.057-.2-.201.2c-2.207 2.5-4.916 4.5-7.023 4.5-1.806 0-2.909-1.2-1.605-3.6l.301-.5c1.906.8 5.618.4 7.825-3.5l.402-.7c1.605-2.8.1-4.8-2.408-4.8-2.408 0-4.314 1.3-5.618 3.5l-2.91 5-.2.2c-2.208 2.5-4.315 4.5-5.619 4.5-.702 0-1.003-.5-.301-1.6l4.314-7.6c1.305-2.3.101-3.9-1.605-3.9-1.304 0-2.709.7-4.214 2.3l4.816-8.3h-3.01L181.992 70l-.201.2c-2.207 2.5-4.314 4.5-5.618 4.5-.702 0-1.003-.5-.301-1.6l6.421-11.2h2.408l.903-1.4h-2.508l2.809-4.9h-3.01l-2.809 4.9h-2.709l-.903 1.4h2.709l-6.02 10.4c-1.304 2.2-.401 4.3 2.007 4.3 1.204 0 2.508-.6 3.812-1.6l-.802 1.3h3.01l4.514-7.9c4.615-5.8 6.622-5 5.418-2.8l-3.913 6.8c-1.304 2.2-.401 4.3 2.007 4.3 1.806 0 3.812-1.4 5.618-3.2.1 1.9 1.705 3.2 4.113 3.2 3.411 0 6.823-2.6 9.23-5.5.101-.6-.401-1-.802-1.2Zm-5.719-4.2c1.706-3 4.816-2.5 3.01.6l-.401.7c-1.405 2.4-3.411 2.4-4.515 2l1.906-3.3Zm114.974 4.4.201-.2c.501.1 1.003.6 1.103 1.1-2.207 2.6-5.217 5-8.327 5.4h-.1c-.301.1-.502.1-.803.1-2.809 0-3.31-2.4-3.31-2.4l1.906-1s.401 1.1 1.404 1.1c1.923 0 2.268-2.446 2.629-5 .185-1.31.374-2.649.782-3.7-.352.447-.746.966-1.173 1.53h-.001l-.001.002c-.911 1.201-1.979 2.608-3.139 3.968-2.508 2.9-5.317 5.5-7.825 5.5-1.906 0-2.91-1.3-2.609-2.9-1.404 1.4-3.31 2.9-4.916 2.9-1.705 0-2.407-1.4-1.605-3.5-1.103.6-2.408.9-3.311.9h-.702c-3.21 4.1-8.628 3.3-8.528-.6-2.006 1.8-4.514 3.2-6.922 3.2-2.508 0-4.013-1.3-4.113-3.2-2.509 2.4-4.916 3.8-7.324 4.6l-2.308 3.9c-2.207 3.7-6.621 3.1-6.621.2 0-2.2 2.608-3.9 6.621-5.1l.702-1.2c-1.103.6-2.106 1-2.909 1-1.706 0-2.608-1-2.608-2.4-1.606 1.4-3.311 2.4-4.816 2.4-2.408 0-3.311-2.1-2.007-4.3l3.211-5.5c.301-.6.2-1.2-.201-1.7l-.401-.5c-2.408 3.2-3.612 4.7-5.017 6.4-1.504 1.8-4.314 2.9-6.119 2.9h-.703c-3.21 4.1-8.527 3.3-8.527-.5-2.509 2.3-4.816 3.8-7.224 4.5l-2.307 3.9c-2.208 3.7-6.622 3.1-6.622.2 0-2.2 2.608-3.9 6.622-5.1l.802-1.4c-1.103.6-2.107 1-2.909 1-2.408 0-3.311-2.1-2.007-4.3l4.214-7.3c1.204-2.2 3.511-3.5 5.116-3.5 1.806 0 3.111 1.7 3.111 2.9h1.806L222.123 76c2.407-1 4.514-2.8 7.022-5.7l.201-.2 1.204-2.1 1.505-2.6c1.705-3 3.511-3.9 5.819-3.9 2.809 0 4.515 3 2.709 6.1l-2.809 4.9c1.504 0 3.11-.7 4.514-2.2l.201-.2c2.006-2.3 3.812-4.8 5.117-6.7l-.301-.3c-1.004-1.4-.903-3.1.802-4.6l1.605 1.7c-.602.5-.602 1.2-.2 1.7l1.705 2c.903 1.2 1.405 2.3.402 4.1l-3.01 5.2c-.702 1.1-.401 1.6.301 1.6 1.304 0 3.411-2 5.618-4.5l.201-.2 2.909-5c1.204-2.2 3.512-3.5 5.117-3.5 1.806 0 3.11 1.7 3.11 2.9h1.806L260.949 76c2.408-1 4.515-2.8 7.023-5.7l.2-.2 2.91-5c1.304-2.2 3.21-3.5 5.618-3.5 2.508 0 4.013 2 2.408 4.8l-.401.7c-2.207 3.9-5.919 4.3-7.826 3.5l-.301.5c-1.304 2.4-.2 3.6 1.606 3.6 2.106 0 4.815-2 7.022-4.5l.201-.2 1.204-2.1 1.505-2.6c1.705-3 3.511-3.9 5.819-3.9 2.809 0 4.514 3 2.709 6.1l-2.81 4.9c1.505 0 3.111-.7 4.515-2.2l.201-.2 4.715-8.1h3.01l-5.819 10.2-.037.064-.049.085c-.405.698-.97 1.672-.315 1.951.602.2 2.307-.9 4.615-3l5.317-9.3h3.01l-6.421 11.2c-.702 1.1-.401 1.6.301 1.6 1.304 0 3.411-2 5.618-4.5l.201-.2c2.598-2.96 5.109-6.517 6.425-8.38l.011-.016.286-.404 2.207 1.2c-1.147 2.346-1.495 4.836-1.808 7.079-.208 1.487-.401 2.865-.801 4.021 1.204-.9 2.509-2 3.612-3.3Zm-39.829-3.8c1.805-3.1-1.305-3.6-3.01-.6l-1.906 3.3c1.103.4 3.11.4 4.514-2l.402-.7Zm-62.002 15.1c0 .9 1.003 1 1.605-.1l1.405-2.5c-2.308.9-3.01 1.8-3.01 2.6Zm2.709-8.4c-.703 1.1-.402 1.6.301 1.6 1.204 0 3.11-1.4 4.916-4.3l2.307-4c1.505-2.7-1.705-3.4-3.311-.6l-4.213 7.3Zm18.66-2.9h.101l2.207-3.7c1.806-3.1-1.104-4.5-3.211-.9l-1.404 2.4-2.308 3.9c-1.705 3.2 1.706 3.6 3.11 1.2V73c-.2-.3-.301-.6-.301-1 0-1 .803-1.8 1.806-1.8Zm17.357 11.3c0 .9 1.003 1 1.605-.1l1.405-2.5c-2.308.9-3.01 1.8-3.01 2.6Zm2.709-8.4c-.703 1.1-.402 1.6.301 1.6 1.204 0 3.11-1.4 4.916-4.3l2.307-4c1.505-2.7-1.705-3.4-3.311-.6l-4.213 7.3Zm29.797-2.9h.1l2.207-3.7c1.806-3.1-1.104-4.5-3.21-.9l-1.405 2.4-2.307 3.9c-1.706 3.2 1.705 3.6 3.11 1.2V73c-.201-.3-.301-.6-.301-1 0-1 .802-1.8 1.806-1.8Zm-155.506-3.4H101.53v2h28.995v-2Zm198.746 0h28.995v2h-28.995v-2Z" fill="#766458"/><path fill-rule="evenodd" clip-rule="evenodd" d="M163.532 0h7.725l-1.204 44.9h-14.547l-2.007-18.5-2.006 18.5h-14.648L135.742 0h7.625l.601 37.2h.803L149.687 0h7.625l4.916 37.2h.802l.502-37.2Zm31.904 37.2V45h-20.968V0h20.968v7.7h-13.343v10.8h10.634v7.7h-10.634v10.9h13.343v.1Zm21.47 7.8v-7.8h-10.735V0h-7.625v45h18.36Zm16.253-16.6 7.725-1.8v13.6c0 2.6-2.207 4.7-4.715 4.7h-11.538c-2.608 0-4.715-2.2-4.715-4.7V4.7c0-2.6 2.107-4.7 4.715-4.7h11.538c2.508 0 4.715 2.1 4.715 4.7v9.1l-7.725 1.8v-8h-5.518v29.5h5.518v-8.7Zm33.308-23.7c0-2.6-2.207-4.7-4.715-4.7h-11.538a4.702 4.702 0 0 0-4.715 4.7v35.4c0 2.5 2.107 4.7 4.715 4.7h11.538c2.508 0 4.715-2.1 4.715-4.7V4.7Zm-13.243 3h5.518v29.5h-5.518V7.7ZM291.549 0h7.624v44.9h-7.624V22.8l-3.11 11.4h-7.525l-3.01-11.4v22.1h-7.625V0h7.625l6.822 21.7L291.549 0Zm32.405 45V37.1h-13.343V26.2h10.634v-7.7h-10.634V7.7h13.343V0h-20.968v45h20.968Z" fill="#81B3D3"/><path fill-rule="evenodd" clip-rule="evenodd" d="M246.101 215.7c24.078 0 41.535-17.1 41.535-41.3 0-22.6-19.965-38.5-41.535-38.5-21.57 0-41.535 15.9-41.535 38.5 0 24.2 17.456 41.3 41.535 41.3ZM246 196.8c-11.637 0-21.168-9.4-21.168-22.3 0-10.3 9.631-19.8 21.168-19.8 11.638 0 21.169 9.5 21.169 19.8 0 12.9-9.531 22.3-21.169 22.3ZM31.502 152.6c4.816 0 9.33 2 12.943 5l7.725-15c-6.622-3.8-15.952-6.2-23.477-6.2-15.049 0-25.884 9.9-25.884 25.1 0 14.5 8.026 17.6 20.266 21.2.24.069.492.139.753.212l.004.001c4.306 1.206 11.082 3.103 11.082 8.287 0 5.2-4.816 7.5-9.431 7.5-6.722 0-12.44-3.4-17.357-7.7L0 206.5c7.625 5.3 16.955 8.5 26.386 8.5 7.524 0 15.35-2 21.27-7 5.918-5 7.724-12.7 7.724-20.1 0-12.1-8.126-17.3-18.56-20.4l-5.017-1.5c-3.31-1-8.628-2.7-8.628-7.1 0-4.2 4.716-6.3 8.328-6.3ZM91.9 167.3v-12.5l23.276.1v-16.5h-42.74v74.8h42.74v-16.5H91.899v-12.9h21.971v-16.5H91.899Zm37.723-28.9h27.69c20.868 0 38.124 16.4 38.124 37.4s-17.357 37.4-38.124 37.4h-27.69v-74.8Zm19.563 58.3h4.415c11.638 0 21.57-6.4 21.57-20.9 0-13.4-8.829-20.9-21.37-20.9h-4.615v41.8Zm148.785-58.3h19.563l35.716 45.8h.201v-45.8h19.564v74.8H353.45l-35.716-45.9h-.201v45.9H297.97v-74.8Zm105.242 74.8 5.217-13h26.888l4.916 13H461l-28.292-74.8h-21.269l-28.894 74.8h20.667Zm18.661-51.7h.2l8.027 23.8h-16.253l8.026-23.8ZM80.462 277.6c0 .3-.1.6-.201.9-.1.3-.3.6-.502.8-.2.2-.501.4-.802.6-.301.1-.703.2-1.104.2-.501 0-.903-.1-1.304-.3-.402-.2-.803-.4-1.104-.7-.238-.237-.35-.475-.486-.761a12.165 12.165 0 0 0-.116-.239c-.1-.4-.2-.8-.2-1.3 0-.9.2-1.6.501-2.4.301-.7.703-1.4 1.305-1.9.2-.2.501-.5.802-.7.301-.2.602-.4.903-.5.19-.063.339-.165.473-.257.08-.055.155-.106.23-.143.076-.038.138-.062.191-.082a.518.518 0 0 0 .21-.118l1.404 2c-.06.03-.13.06-.205.093l-.002.001a3.685 3.685 0 0 0-.595.306c-.301.1-.602.3-.903.5-.301.2-.502.5-.703.8-.2.3-.3.6-.3 1 .702 0 1.203.2 1.705.6.602.3.803.9.803 1.6Zm7.925 0c0 .3-.1.6-.2.9-.1.3-.301.6-.502.8-.2.2-.501.4-.802.6-.301.1-.703.2-1.104.2-.502 0-.903-.1-1.304-.3-.402-.2-.803-.4-1.104-.7-.2-.3-.401-.6-.602-1-.1-.4-.2-.8-.2-1.3 0-.9.2-1.6.501-2.4.301-.7.703-1.4 1.304-1.9.201-.2.502-.5.803-.7.301-.2.602-.4.903-.5.189-.063.338-.165.473-.257.08-.055.155-.106.23-.143.076-.038.138-.062.19-.082a.518.518 0 0 0 .21-.118l1.405 2c-.06.03-.13.06-.205.093l-.002.001a3.685 3.685 0 0 0-.596.306c-.3.1-.601.3-.902.5-.301.2-.502.5-.703.8-.2.3-.3.6-.3 1 .702 0 1.203.2 1.705.6.502.3.803.9.803 1.6Zm275.698 18.5.301-.3c.29.116.646.365.973.593h.001v.001c.239.166.462.322.631.406-3.21 3.6-6.822 7-9.932 7-1.907 0-3.11-1-3.311-2.5-1.906 1.5-3.812 2.5-5.317 2.5-2.308 0-3.512-1.4-3.311-3.3-2.207 1.9-4.415 3.3-6.421 3.3-3.11 0-4.214-2.6-2.609-5.4l4.916-8.6c1.706-2.8-.902-3.8-6.721 3.5l-5.819 10.1h-3.813l1.405-2.4c-1.906 1.7-3.913 2.8-5.719 2.8-1.906 0-3.11-1-3.311-2.5-1.906 1.5-3.812 2.5-5.317 2.5-2.207 0-3.311-1.3-3.311-3-2.006 1.8-4.113 3-6.019 3-3.11 0-4.214-2.6-2.609-5.4l4.013-7c.502-.8.301-1.6-.2-2.2l-.502-.6-.468.628-.001.002c-2.597 3.481-3.939 5.281-5.551 7.17.039.077.062.138.083.191a.507.507 0 0 0 .118.209c-4.214 4.9-8.126 7.6-12.039 8.8l-2.91 5c-2.708 4.7-8.327 3.9-8.327.3 0-2.9 3.211-4.9 8.327-6.5l1.004-1.7a7.668 7.668 0 0 1-4.114 1.2c-5.417 0-5.919-5.1-3.21-9.7l1.104-2c-3.111-1.6-4.816-4.5-4.816-7.5 0-2.6 1.204-5.2 3.913-7.1l1.204 2.2c-1.606 1.3-2.408 3-2.408 4.8 0 2.1 1.204 4.2 3.411 5.4l5.919-10.2c1.706-2.9 4.214-4.4 6.321-4.4 11.938 0 5.417 18.1-8.127 18.1-.802 0-1.505-.1-2.207-.2l-1.104 1.9c-2.307 3.9-1.806 6.5.803 6.5 3.01 0 5.317-2.6 7.324-6.1l.401-.7h3.712l-4.815 8.2c3.009-1.3 5.718-3.6 8.828-7.2l-.301-.3c2.229-2.576 4.219-5.389 5.832-7.668l.589-.832-.301-.4c-1.304-1.7-1.204-3.9 1.003-5.8l2.007 2.2c-.702.7-.702 1.5-.201 2.2l2.107 2.6c1.204 1.5 1.806 2.8.502 5.1l-3.813 6.6c-.903 1.5-.401 2.1.402 2.1 1.705 0 4.414-2.5 7.123-5.7l.201-.2 3.712-6.3c1.605-2.8 4.514-4.4 6.521-4.4 2.508 0 4.113 2.2 4.013 3.8h1.906l-6.12 10.7c-.903 1.5-.401 2.1.402 2.1 1.705 0 4.414-2.5 7.123-5.7l.301-.3c.2 0 .301.1.401.2l6.12-10.5h3.812l-1.404 2.5c1.906-1.9 3.712-2.8 5.317-2.8 2.107 0 3.612 2.1 2.007 5l-5.518 9.6c-.903 1.5-.402 2.1.401 2.1 1.705 0 4.414-2.5 7.123-5.7l.301-.3s.1.1.201.1l3.712-6.4c1.605-2.8 4.514-4.4 6.521-4.4 1.605 0 2.809.9 3.511 2l5.619-9.6h3.812l-12.842 22.2c-.903 1.5-.401 2.1.402 2.1 1.705 0 4.414-2.5 7.123-5.7Zm-74.442-17.3c-1.004 0-2.308.9-3.412 2.8l-5.517 9.5h.802c9.932 0 14.146-12.3 8.127-12.3Zm-13.645 31.6c0 1 1.304 1.2 2.107-.2l1.706-3c-2.91 1.1-3.813 2.2-3.813 3.2Zm35.817-8.7c1.505 0 3.812-1.7 6.12-5.3l3.009-5.2c1.907-3.4-2.207-4.3-4.213-.8l-5.318 9.2c-.903 1.5-.401 2.1.402 2.1Zm36.719 0c1.605 0 3.913-1.7 6.22-5.5l2.91-5c1.906-3.4-2.207-4.3-4.214-.8l-5.317 9.2c-.903 1.5-.401 2.1.401 2.1Zm-239.579-26.2c7.524 0 7.022 9.6-.703 12.2 7.324 4.9 2.007 18.5-9.33 18.5-13.343 0-15.751-14.6-7.725-19.7l1.505 1.9c-3.712 2.4-4.415 7.8-1.806 11.4.505-.587.869-1.175 1.27-1.821l.235-.379 10.233-17.7c1.706-2.9 4.214-4.4 6.321-4.4ZM93.304 302c1.504.8 3.21 1.3 5.518 1.3 9.23 0 12.741-13.1 3.812-15l-1.003-.1-6.421 11.1c-.602 1-1.204 1.9-1.906 2.7Zm12.741-21.3-3.11 5.3c3.913-.1 6.02-.9 7.524-3.7 1.907-3.6-1.605-6.4-4.414-1.6Zm37.522 23.4c-2.508 0-3.712-1.9-3.11-4.1-2.709 2.3-5.819 4.1-9.029 4.3-3.211 0-5.217-2-5.117-4.6-2.709 2.6-6.12 4.6-9.431 4.6-4.514 0-6.621-3.8-4.213-7.8l4.013-6.8c1.605-2.8 4.013-4.4 7.123-4.4 3.11 0 5.016 2.6 3.01 6.1l-.502.9c-2.909 4.9-7.524 5.4-9.932 4.4l-.402.7c-1.705 3-.301 4.5 2.007 4.5 2.709 0 6.22-2.5 8.929-5.7l.301-.3c.05.05.1.075.151.1.05.025.1.05.15.1l3.812-6.5c1.606-2.8 4.013-4.4 7.124-4.4 3.11 0 5.016 2.6 3.009 6.1l-.501.9h-3.11l.501-.9c2.308-3.9-1.605-4.6-3.812-.8l-3.913 6.8c-1.705 3-.301 4.5 2.007 4.5 2.708 0 6.22-2.5 8.929-5.7l.301-.3c.2.1.401.2.602.4l3.812-6.6c1.605-2.8 4.515-4.4 6.521-4.4 2.508 0 4.114 2.2 4.013 3.8h2.208l-6.12 10.7c-.903 1.5-.402 2.1.401 2.1 1.705 0 4.414-2.5 7.123-5.7l.301-.3c.05.05.1.075.151.1.05.025.1.05.15.1l6.02-10.4h3.812l-7.424 12.9-.031.05c-.507.807-1.355 2.158-.471 2.55.703.3 2.91-1.2 5.819-3.8l6.722-11.8h3.812l-8.126 14.2c-.903 1.5-.401 2.1.401 2.1 1.706 0 4.415-2.5 7.124-5.7l.1-.2-.1-.1c2.82-3.308 5.641-7.231 7.441-9.734l.003-.004c.375-.522.706-.982.983-1.362l2.809 1.5c-1.474 2.938-1.933 6.176-2.343 9.072-.26 1.835-.501 3.532-.968 4.928 1.505-1 3.211-2.5 4.615-4.1l.301-.3h.101l3.712-6.3c1.605-2.8 4.013-4.4 7.123-4.4 3.11 0 5.016 2.6 3.01 6.1l-.502.9c-2.909 4.9-7.524 5.4-9.932 4.4l-.402.7c-1.705 3-.301 4.5 2.007 4.5 2.709 0 6.22-2.5 8.929-5.7l.301-.3c.502.2 1.104.8 1.405 1.3-3.111 3.6-7.425 7-11.739 7-3.11 0-5.016-1.8-5.116-4.3-2.408 2.1-5.117 3.8-7.926 4.2h-.1c-.402.1-.703.1-1.104.1-3.511 0-4.214-3.1-4.214-3.1l2.408-1.2s.502 1.4 1.806 1.4c2.393 0 2.848-3.118 3.321-6.356.24-1.649.485-3.328.993-4.644-.426.547-.89 1.167-1.387 1.833h-.001c-1.141 1.528-2.462 3.296-3.929 4.967 0 .05.025.075.05.1.025.025.05.05.05.1-3.21 3.6-6.822 7-9.932 7-2.408 0-3.612-1.6-3.211-3.6-1.806 1.7-4.113 3.6-6.22 3.6-1.906 0-2.809-1.4-2.408-3.4-2.207 2-4.414 3.4-6.421 3.4-1.906 0-3.11-1-3.31-2.5-1.907 1.5-3.813 2.5-5.318 2.5Zm58.892-12.9c2.307-3.9-1.605-4.6-3.813-.8l-2.407 4.2c1.404.5 3.912.6 5.718-2.5l.502-.9Zm-52.872-.7-5.317 9.2c-.903 1.5-.402 2 .401 2.1 1.505 0 3.812-1.7 6.12-5.3l3.01-5.2c1.906-3.4-2.208-4.3-4.214-.8Zm-25.784.7c2.307-3.9-1.605-4.6-3.812-.8l-2.408 4.2c1.404.5 3.912.6 5.718-2.5l.502-.9Zm125.207 12.9c4.314 0 8.628-3.4 11.739-7-.301-.5-.903-1.1-1.405-1.3l-.301.3c-2.709 3.2-6.22 5.7-8.929 5.7-2.308 0-3.712-1.5-2.007-4.5l.402-.7c2.407 1 7.022.5 9.932-4.4l.502-.9c2.006-3.5.1-6.1-3.01-6.1s-5.518 1.6-7.123 4.4l-3.712 6.3s-.101 0-.101-.1l-.301.3c-2.709 3.2-5.417 5.7-7.123 5.7-.803 0-1.304-.6-.401-2.1l5.518-9.6c1.605-2.9.1-5-2.007-5-1.605 0-3.411.9-5.317 2.9l6.12-10.5h-3.913L226.838 296c-.05-.05-.125-.1-.201-.15-.075-.05-.15-.1-.2-.15l-.301.3c-2.709 3.2-5.418 5.7-7.123 5.7-.803 0-1.305-.6-.402-2.1l8.127-14.2h3.11l1.104-1.8h-3.111l3.612-6.2h-3.812l-3.612 6.2h-3.411l-1.104 1.8h3.512l-7.625 13.2c-1.605 2.8-.502 5.4 2.608 5.4 1.907 0 3.913-1.2 6.02-3l-1.505 2.6h3.813l5.818-10c5.819-7.3 8.428-6.4 6.823-3.6l-4.916 8.6c-1.606 2.8-.502 5.4 2.608 5.4 2.308 0 4.916-1.8 7.324-4.2 0 2.5 1.906 4.3 5.016 4.3Zm3.11-13.7c2.208-3.8 6.12-3.1 3.813.8l-.502.9c-1.806 3.1-4.314 3-5.718 2.5l2.407-4.2Zm-14.848 41.4-.301.3c-2.709 3.2-5.417 5.7-7.123 5.7-.803 0-1.304-.6-.401-2.1l5.518-9.6c1.605-2.9.1-5-2.007-5-1.605 0-3.411.9-5.317 2.8l1.404-2.5h-3.812l-6.12 10.6c-.1-.05-.175-.1-.251-.15-.075-.05-.15-.1-.251-.15l-.301.3c-1.705 1.9-3.812 2.8-5.718 2.8l3.612-6.2c2.307-4 .2-7.7-3.411-7.7-2.91 0-5.217 1.2-7.425 5l-1.906 3.2-1.605 2.8a.514.514 0 0 0-.151-.1l-.027-.014a.437.437 0 0 1-.123-.086l-.301.3c-3.11 3.6-5.819 5.9-8.829 7.2l10.434-17.8h-3.812l-6.722 11.7c-2.91 2.7-5.217 4.2-5.919 3.9-.885-.392-.037-1.743.47-2.55l.031-.05 7.424-12.9h-3.812L184.4 332c-.05-.05-.1-.075-.15-.1a.514.514 0 0 1-.151-.1l-.301.3c-2.709 3.2-5.417 5.7-7.123 5.7-.803 0-1.304-.6-.401-2.1l5.518-9.6c1.605-2.9.1-5-2.007-5-1.605 0-3.411.9-5.317 2.8l1.404-2.5h-3.812l-6.12 10.5c-.1-.1-.201-.2-.401-.2l-.301.3c-2.709 3.2-5.418 5.7-7.123 5.7-.803 0-1.305-.6-.402-2.1l6.12-10.7h-2.207c.1-1.6-1.505-3.8-4.013-3.8-2.007 0-4.916 1.6-6.521 4.4l-3.913 6.8c-.301-.2-.602-.4-.803-.5l-.301.3c-2.708 3.2-6.119 5.7-9.832 5.7-2.608 0-4.213-2.6-1.906-6.5l1.104-1.9c.702.1 1.404.2 2.207.2 4.013 0 8.628-2.1 11.638-7.3 1.103-1.9 1.505-3.6 1.505-5.1 0-3.4-2.207-5.7-5.017-5.7-2.106 0-4.615 1.5-6.32 4.4l-5.919 10.2c-2.208-1.2-3.411-3.3-3.411-5.4 0-1.8.802-3.5 2.407-4.8l-1.204-2.2c-2.708 1.9-3.912 4.5-3.912 7.1 0 3 1.705 5.9 4.815 7.5l-1.103 2c-2.709 4.6-1.104 9.7 4.314 9.7 4.214 0 7.424-1.9 10.032-4.4-.802 2.4.402 4.4 3.111 4.4 1.504 0 3.411-1 5.317-2.5.201 1.5 1.404 2.5 3.311 2.5 1.806 0 3.812-1.1 5.718-2.8l-1.404 2.4h3.812l5.819-10.1c5.819-7.3 8.427-6.3 6.722-3.5l-4.916 8.6c-1.605 2.8-.502 5.4 2.608 5.4 2.007 0 4.314-1.4 6.522-3.4-.502 2.1.501 3.4 2.407 3.4 1.806 0 3.913-1.5 5.619-3.1l-2.107 3.6c-5.117 1.5-8.428 3.6-8.428 6.5 0 3.6 5.619 4.4 8.328-.3l2.909-5c3.21-1 6.321-3 9.631-6.2-.501 5.3 6.522 6.5 10.836 1.1h.802c1.405 0 3.311-.5 5.017-1.5l-2.509 4.4h3.813l5.819-10.1c5.819-7.3 8.427-6.3 6.722-3.5l-4.916 8.6c-1.606 2.8-.502 5.4 2.608 5.4 3.11 0 6.722-3.4 9.932-7-.1-.3-.802-.9-1.304-1.1Zm-94.708-14.2c1.104-1.9 2.408-2.8 3.411-2.8 1.405 0 2.107.9 2.107 2.3 0 3.5-4.314 9.9-10.233 9.9h-.803l5.518-9.4Zm13.444 14.8c-2.308 3.6-4.615 5.3-6.12 5.3-.803 0-1.304-.6-.401-2.1l5.317-9.2c2.006-3.5 6.12-2.6 4.214.8l-3.01 5.2Zm28.894 13.8c-.803 1.4-2.107 1.2-2.107.2s.903-2.1 3.812-3.2l-1.705 3Zm25.683-14.2h-.2c-1.204 0-2.208 1-2.208 2.3 0 .5.101.9.402 1.3v.1c-1.806 3.1-6.12 2.5-3.913-1.5l2.91-5 1.805-3.1c2.709-4.5 6.321-2.7 4.013 1.2l-2.809 4.7Zm113.47-.2c.501.1 1.203.7 1.404 1.3-2.809 3.3-6.722 6.4-10.534 7.1h-.101c-.401.1-.702.1-1.103.1-3.512 0-4.214-3.1-4.214-3.1l2.408-1.2s.502 1.4 1.806 1.4c2.393 0 2.848-3.117 3.321-6.356.24-1.648.485-3.328.993-4.644-.411.528-.857 1.123-1.338 1.765-1.159 1.55-2.519 3.368-4.08 5.135-3.21 3.6-6.822 7-9.932 7-3.11 0-3.712-1.7-3.712-4.9v-3l-4.314 7.5h-3.813l2.107-3.7c-2.708 2.3-5.718 4-8.828 4-3.111 0-5.117-1.9-5.117-4.4-2.508 2.5-5.117 4.4-7.525 4.4-2.407 0-3.611-1.6-3.21-3.6-1.806 1.7-4.113 3.6-6.22 3.6-1.605 0-2.508-1-2.508-2.5-1.806 1.3-3.712 2.1-5.619 2.4h-.1c-.401.1-.702.1-1.104.1-3.119 0-4.021-2.446-4.184-2.992a90.043 90.043 0 0 1-2.236 2.692 20.156 20.156 0 0 0-.293-.227c-.426-.327-.868-.667-1.112-1.073 3.511-4 12.24-15.6 13.845-17.8l2.809 1.5c-1.474 2.939-1.933 6.176-2.343 9.072-.26 1.835-.501 3.532-.968 4.928.304-.259.646-.538 1.001-.827l.008-.006.002-.002.001-.001c.461-.376.945-.77 1.396-1.164l7.424-12.7h3.813l-7.424 12.9-.032.05c-.506.808-1.354 2.159-.47 2.55.702.3 2.909-1.2 5.819-3.8l6.722-11.8h3.812l-8.126 14.2c-.903 1.5-.402 2.1.401 2.1 1.706 0 4.414-2.5 7.123-5.7l.301-.3s.101.1.201.1l3.712-6.4c1.605-2.8 4.013-4.4 7.123-4.4 3.11 0 5.016 2.6 3.01 6.1l-.502.9h-3.11l.502-.9c2.307-3.9-1.605-4.6-3.813-.8l-3.912 6.8c-1.706 3-.301 4.5 2.006 4.5 2.709 0 6.22-2.5 8.929-5.7l.301-.3c.201.1.502.3.702.5l10.836-18.8h3.812l-5.417 9.4c3.912-3.6 9.631-1.6 6.119 4.5l-1.003 1.8c-1.806 3.1-4.615 4.8-7.324 4.5v1.6c0 1.8.803 2.6 1.606 2.6 1.705 0 4.414-2.5 7.123-5.7l.301-.3c2.821-3.307 5.641-7.231 7.441-9.733v-.001c.377-.523.708-.985.986-1.366l2.809 1.5c-1.474 2.939-1.933 6.176-2.343 9.072-.26 1.835-.501 3.532-.968 4.928 1.505-1 3.211-2.5 4.616-4.1l.301-.3Zm-75.353 5.204 2.215-1.104s.501 1.4 1.805 1.4c2.394 0 2.849-3.117 3.321-6.356.241-1.648.486-3.328.993-4.644-.98 1.354-5.309 6.949-8.334 10.704Zm52.578-8.804-1.103 1.9c.903 2.5 4.214 1.1 5.317-.9l1.806-3.1c1.405-2.3-1.605-4-6.02 2.1Zm24.079 7.5c-1.204 0-2.207 1-2.207 2.2 0 1.2.903 2.2 2.207 2.2 1.204 0 2.207-.9 2.207-2.2 0-1.2-1.003-2.2-2.207-2.2Zm4.013-1.5h-3.813l11.939-20.7h3.813l-11.939 20.7Zm25.182 1.4c-.101.3-.201.6-.201.9 0 .7.301 1.3.803 1.6.501.4 1.003.6 1.705.6 0 .4-.1.7-.301 1-.201.3-.401.6-.702.8-.301.2-.602.4-.903.5-.21.139-.42.23-.596.306a4.953 4.953 0 0 0-.207.094l1.405 2c.062-.062.124-.085.21-.118a1.91 1.91 0 0 0 .191-.082c.075-.037.15-.088.229-.143.135-.092.285-.194.473-.257.301-.1.602-.3.903-.5.301-.2.602-.5.803-.7.602-.5 1.003-1.2 1.304-1.9.301-.8.502-1.5.502-2.4 0-.5-.1-.9-.201-1.3-.042-.083-.079-.163-.115-.238-.136-.287-.249-.525-.487-.762-.301-.3-.702-.5-1.103-.7-.402-.2-.803-.3-1.305-.3-.401 0-.802.1-1.103.2l-.001.001c-.301.199-.601.399-.802.599-.2.2-.401.5-.501.8Zm-7.826 0c-.1.3-.201.6-.201.9 0 .7.201 1.3.803 1.6.502.4 1.003.6 1.706.6 0 .4-.101.7-.301 1-.201.3-.402.6-.703.8-.301.2-.602.4-.903.5-.301.2-.501.3-.802.4l1.404 2c.062-.062.124-.085.21-.118.053-.02.115-.044.192-.082.074-.037.149-.088.229-.143.135-.092.284-.194.473-.257.301-.1.602-.3.903-.5.301-.2.602-.5.803-.7.602-.5 1.003-1.2 1.304-1.9.301-.8.501-1.5.501-2.4 0-.5-.1-.9-.2-1.3-.201-.4-.402-.7-.602-1-.301-.3-.702-.5-1.104-.7-.401-.2-.802-.3-1.304-.3-.401 0-.803.1-1.104.2v.001c-.301.199-.602.399-.802.599-.201.2-.402.5-.502.8Z" fill="#fff"/></svg>