<svg xmlns="http://www.w3.org/2000/svg">
    <symbol id="house-icon">
      <path fill="#81B3D2" d="M15.9 33.8h8.35V21.65H15.9V33.8Zm6.84-1.47h-5.32v-9.2h5.27v9.2h.05Z" />
                <path fill="#81B3D2"
                  d="m38.4 20.63 1.1-1.07-5.17-5.04V.8h-7.2V7.5L19.97.58.5 19.61l1.1 1.07 4.07-3.97v19.23H3.63v1.48H37v-1.48h-2.66V16.66l4.07 3.97ZM28.64 2.3h4.13v10.74l-4.13-4.02V2.3Zm4.18 33.58H7.23v-20.7L19.97 2.71l12.8 12.46v20.7h.05Z" />
                <path fill="#81B3D2"
                  d="M16.06 14.42a4.01 4.01 0 0 0 4.02 3.97 4.03 4.03 0 0 0 4.07-3.97 3.98 3.98 0 0 0-4.07-3.92 3.94 3.94 0 0 0-4.02 3.92Zm4.02-2.54a2.59 2.59 0 0 1 2.6 2.54 2.58 2.58 0 0 1-2.6 2.55 2.59 2.59 0 0 1-2.61-2.55c0-1.37 1.2-2.54 2.6-2.54ZM10.89 21.65H9.32v1.98h1.57v-1.98ZM13.97 21.65H12.4v1.98h1.57v-1.98ZM10.89 24.7H9.32v1.98h1.57V24.7ZM13.97 24.7H12.4v1.98h1.57V24.7ZM27.54 21.65h-1.56v1.98h1.56v-1.98ZM30.68 21.65H29.1v1.98h1.57v-1.98ZM27.54 24.7h-1.56v1.98h1.56V24.7ZM30.68 24.7H29.1v1.98h1.57V24.7Z" />
    </symbol>
    <symbol id="food-icon">
      <path fill="#81B3D2"
      d="M37.74 23.85H2.26A2.23 2.23 0 0 0 0 26.03v1.77c0 1.17 1 2.13 2.26 2.13h.52v.5a5.12 5.12 0 0 0 5.2 5.02h24.04c2.89 0 5.2-2.28 5.2-5.01v-.51h.52c1.21 0 2.26-.96 2.26-2.18v-1.77c0-1.12-1-2.13-2.26-2.13Zm-2.04 6.59c0 1.92-1.63 3.49-3.63 3.49H7.93c-2 0-3.63-1.57-3.63-3.5v-.5h31.4v.5Zm2.73-2.69c0 .36-.32.66-.69.66H2.26a.68.68 0 0 1-.69-.66v-1.77c0-.3.32-.61.69-.61H37.8c.36 0 .68.3.68.66v1.72h-.05ZM8.5 19.75l2.84 2.02 2.89-2.02 2.88 2.02L20 19.75l2.83 2.02 2.9-2.02 2.88 2.02 2.89-2.02 2.88 2.02 3.31-2.38-.9-1.21-2.4 1.67-2.9-2.03-2.88 2.03-2.89-2.03-2.89 2.03L20 17.82l-2.89 2.03-2.88-2.03-2.9 2.03-2.83-2.03-2.88 2.03-2.42-1.67-.94 1.21 3.36 2.38 2.88-2.02ZM37.22 16.3c0-.3.05-1.31 0-1.52C36.85 6.88 29.29.55 20 .55 10.7.55 3.1 6.88 2.73 14.78v1.52h34.49ZM20 2.07c8.4 0 15.33 5.67 15.64 12.71H4.3C4.67 7.74 11.6 2.07 20 2.07Z" />
    <path fill="#81B3D2"
      d="M20 9.16c.58 0 1.05-.45 1.05-1.01S20.58 7.14 20 7.14c-.58 0-1.05.45-1.05 1 0 .57.47 1.02 1.05 1.02ZM15.8 6.68c.58 0 1.05-.45 1.05-1.01s-.47-1.02-1.05-1.02c-.58 0-1.05.46-1.05 1.02s.47 1 1.05 1ZM24.2 6.68c.58 0 1.05-.45 1.05-1.01s-.47-1.02-1.05-1.02c-.58 0-1.05.46-1.05 1.02s.47 1 1.05 1Z" />
    </symbol>
    <symbol id="souvenir-icon">
      <path fill="#81B3D2"
                  d="M30.58 11.2h-12.4c6.91-3.44 7.47-5.62 7.22-6.83-.56-1.98-2.85-3.5-4.98-2.69-2.8 1.07-3.56 5.22-4.32 8.2-.96-3.03-1.88-6.88-4.06-8.85A3.7 3.7 0 0 0 9.14 0c-2.03.2-4.92 2.69-3.7 5.47 1.11 2.69 4.82 4.4 7.3 5.78H1.43c-.81 0-1.42.65-1.42 1.41v5.68c0 .8.66 1.42 1.42 1.42h.15V38h28.96V19.77h.05c.81 0 1.42-.66 1.42-1.42v-5.68c0-.8-.66-1.46-1.42-1.46Zm-9.35-8.25c1.07-.15 2.5.66 2.64 1.62.2 1.37-1.67 2.63-2.54 3.2-1.27.85-2.49 1.3-3.65 2.02.4-1.88 1.27-6.54 3.55-6.84ZM9.75 7.91c-1.12-.76-3.25-2.23-3.2-3.9C6.6 2.2 9.45.72 10.97 2.1c1.93 1.67 2.85 5.57 3.56 8.3-1.63-.8-3.15-1.41-4.78-2.48Zm3 28.57h-9.7V19.77h9.7v16.71Zm0-18.23H1.52v-5.52h11.23v5.52Zm5.08 18.23h-3.6V12.73h3.6v23.75Zm11.17 0h-9.65V19.77h9.7v16.71H29Zm1.48-18.23H19.35v-5.52h11.13v5.52Z" />
    </symbol>
    <symbol id="vk-icon">
      <path fill="#81B3D2" d="M0 0h48v48H0z" />
            <g clip-path="url(#a)">
              <path fill="#fff" fill-rule="evenodd"
                d="M35.45 17.948c.166-.546 0-.948-.795-.948H32.03c-.668 0-.976.347-1.143.73 0 0-1.335 3.196-3.226 5.272-.612.602-.89.793-1.224.793-.167 0-.418-.191-.418-.738v-5.109c0-.656-.184-.948-.74-.948h-4.128c-.417 0-.668.304-.668.593 0 .621.946.765 1.043 2.513v3.798c0 .833-.153.984-.487.984-.89 0-3.055-3.211-4.34-6.885-.249-.715-.501-1.003-1.172-1.003H12.9c-.75 0-.9.347-.9.73 0 .682.89 4.07 4.145 8.551C18.315 29.341 21.37 31 24.153 31c1.669 0 1.875-.368 1.875-1.003v-2.313c0-.737.158-.884.687-.884.39 0 1.057.192 2.615 1.667C31.11 30.216 31.403 31 32.405 31h2.625c.75 0 1.126-.368.91-1.096-.238-.724-1.088-1.775-2.215-3.022-.612-.71-1.53-1.475-1.809-1.858-.389-.491-.278-.71 0-1.147 0 0 3.2-4.426 3.533-5.929h.001Z"
                clip-rule="evenodd" />
            </g>
            <defs>
              <clipPath id="a">
                <path fill="#fff" d="M12 12h24v24H12z" />
              </clipPath>
            </defs>
    </symbol>
    <symbol id="telegramm-icon">
      <path fill="#81B3D2" d="M0 0h48v48H0z" />
      <path fill="#fff"
        d="m34.44 16.622-3.17 14.944c-.239 1.055-.862 1.317-1.748.82l-4.828-3.558-2.33 2.242c-.258.258-.473.473-.97.473l.347-4.917 8.948-8.086c.39-.346-.084-.54-.604-.192l-11.063 6.966-4.762-1.491c-1.036-.323-1.055-1.036.216-1.533l18.627-7.177c.863-.323 1.617.192 1.336 1.51Z" />
    </symbol>
    <symbol id="you-tube-icon">
      <path fill="#81B3D2" d="M0 0h48v48H0z" />
      <path fill="#fff"
        d="M31.181 17H16.813C15.306 17 14 18.3 14 19.8v8.3c0 1.6 1.306 2.9 2.813 2.9h14.368c1.608 0 2.814-1.3 2.814-2.8v-8.4c.1-1.5-1.206-2.8-2.814-2.8ZM21.033 27.4v-6.8l6.833 3.4-6.833 3.4Z" />
    </symbol>
    <symbol id="html-academy-icon">
      <path fill="currentColor"
          d="M13.6 0h-.1L0 1.4v24.7l13.5 8 13.4-8V1.4L13.6 0ZM25 12.1 13.5 5.3v-.1h-.1l-.1-.1v.1L1.9 12.1v-9l11.5-1.2L25 3.1v9ZM13.4 6.8l11.5 6.7-4.5 2.6-7.1-4.2v1.4l5.9 3.5-.9.5-5-3v1.4l3.8 2.3-.8.5-3-1.8v1.4l1.9 1.1-1.8 1.1L2 13.6l11.4-6.8ZM1.9 15.1l11.4 6.8v1l-7.9-4.7v1.4l8 4.8v1.1l-8-4.7v1.4l8 4.8 8.1-4.9v-5.2l3.4-2v10l-11.5 6.9L1.9 25v-9.9Z" />
    </symbol>
    <symbol id="like-icon">
    <path fill="currentColor"
                    d="m12.96 3.78-.62 3.05-.63 2.62h9.09v2.2l-3.03 7.25h-9.4V8.4l4.6-4.62ZM2.1 10.5v8.4-8.4ZM13.8 0 6.9 6.93c-.42.32-.63.84-.63 1.47v10.5c0 1.16.94 2.1 2.1 2.1h9.4c.84 0 1.57-.52 1.88-1.26l3.14-7.45c.1-.21.1-.53.1-.74v-2.1H23a2.1 2.1 0 0 0-2.1-2.1h-6.58l1.05-4.83v-.31c0-.43-.21-.84-.42-1.16L13.8 0ZM4.18 8.4H0V21h4.18V8.4Z" />
    </symbol>
</svg>
